<mxfile host="app.diagrams.net" modified="2021-08-12T18:45:49.101Z" agent="5.0 (Macintosh; Intel Mac OS X 10_15_6) AppleWebKit/605.1.15 (KHTML, like Gecko) Version/14.0.3 Safari/605.1.15" etag="o1x8UH6yKpsizozKhkk_" version="14.8.0" type="github" pages="5">
  <diagram id="i1lQdOyH62CmWCrgiDlv" name="Facebook login Sequence Diagram">
    <mxGraphModel dx="705" dy="645" grid="1" gridSize="10" guides="1" tooltips="1" connect="1" arrows="1" fold="1" page="1" pageScale="1" pageWidth="850" pageHeight="1100" math="0" shadow="0">
      <root>
        <mxCell id="TrnmHSG4BdzwyE5MJGU8-0" />
        <mxCell id="TrnmHSG4BdzwyE5MJGU8-1" parent="TrnmHSG4BdzwyE5MJGU8-0" />
        <mxCell id="TrnmHSG4BdzwyE5MJGU8-12" value="&lt;span style=&quot;font-weight: bold&quot;&gt;WalkthroughViewController&lt;/span&gt;" style="shape=umlLifeline;perimeter=lifelinePerimeter;whiteSpace=wrap;html=1;container=1;collapsible=0;recursiveResize=0;outlineConnect=0;" parent="TrnmHSG4BdzwyE5MJGU8-1" vertex="1">
          <mxGeometry x="80" y="290" width="170" height="720" as="geometry" />
        </mxCell>
        <mxCell id="TrnmHSG4BdzwyE5MJGU8-15" value="&lt;p style=&quot;margin: 0px ; font-stretch: normal ; font-size: 14px ; line-height: normal ; font-family: &amp;#34;menlo&amp;#34; ; color: rgb(28 , 70 , 74) ; background-color: rgb(255 , 255 , 255)&quot;&gt;FacebookLoginHelper&lt;/p&gt;" style="shape=umlLifeline;perimeter=lifelinePerimeter;whiteSpace=wrap;html=1;container=1;collapsible=0;recursiveResize=0;outlineConnect=0;" parent="TrnmHSG4BdzwyE5MJGU8-1" vertex="1">
          <mxGeometry x="320" y="290" width="170" height="710" as="geometry" />
        </mxCell>
        <mxCell id="TrnmHSG4BdzwyE5MJGU8-33" value="" style="html=1;points=[];perimeter=orthogonalPerimeter;" parent="TrnmHSG4BdzwyE5MJGU8-15" vertex="1">
          <mxGeometry x="75.5" y="150" width="10" height="80" as="geometry" />
        </mxCell>
        <mxCell id="TrnmHSG4BdzwyE5MJGU8-34" value="&lt;p style=&quot;margin: 0px ; font-stretch: normal ; line-height: normal ; font-family: &amp;#34;menlo&amp;#34; ; color: rgba(0 , 0 , 0 , 0.85) ; font-size: 12px&quot;&gt;touchFacebookStartButton()&lt;/p&gt;&lt;p style=&quot;margin: 0px ; font-stretch: normal ; line-height: normal ; font-family: &amp;#34;menlo&amp;#34; ; color: rgba(0 , 0 , 0 , 0.85) ; font-size: 12px&quot;&gt;&amp;gt;&amp;nbsp;&lt;span style=&quot;color: rgb(50 , 109 , 116)&quot;&gt;doFacebookLogin()&lt;/span&gt;&lt;/p&gt;" style="html=1;verticalAlign=bottom;endArrow=block;entryX=0;entryY=0;" parent="TrnmHSG4BdzwyE5MJGU8-1" source="TrnmHSG4BdzwyE5MJGU8-12" target="TrnmHSG4BdzwyE5MJGU8-33" edge="1">
          <mxGeometry y="10" relative="1" as="geometry">
            <mxPoint x="180" y="400" as="sourcePoint" />
            <Array as="points">
              <mxPoint x="340" y="440" />
            </Array>
            <mxPoint as="offset" />
          </mxGeometry>
        </mxCell>
        <mxCell id="TrnmHSG4BdzwyE5MJGU8-36" value="&lt;span style=&quot;font-weight: bold&quot;&gt;WalkthroughViewModel&lt;/span&gt;" style="shape=umlLifeline;perimeter=lifelinePerimeter;whiteSpace=wrap;html=1;container=1;collapsible=0;recursiveResize=0;outlineConnect=0;" parent="TrnmHSG4BdzwyE5MJGU8-1" vertex="1">
          <mxGeometry x="540" y="290" width="160" height="710" as="geometry" />
        </mxCell>
        <mxCell id="TrnmHSG4BdzwyE5MJGU8-37" value="&lt;span style=&quot;color: rgb(50 , 109 , 116) ; font-family: &amp;#34;menlo&amp;#34; ; font-size: 12px&quot;&gt;handleResultOfFacebookLogin()&lt;/span&gt;" style="html=1;verticalAlign=bottom;endArrow=open;dashed=1;endSize=8;" parent="TrnmHSG4BdzwyE5MJGU8-1" source="TrnmHSG4BdzwyE5MJGU8-15" target="TrnmHSG4BdzwyE5MJGU8-12" edge="1">
          <mxGeometry relative="1" as="geometry">
            <mxPoint x="460" y="440" as="sourcePoint" />
            <mxPoint x="380" y="440" as="targetPoint" />
            <Array as="points">
              <mxPoint x="340" y="520" />
            </Array>
          </mxGeometry>
        </mxCell>
        <mxCell id="TrnmHSG4BdzwyE5MJGU8-38" value="" style="html=1;points=[];perimeter=orthogonalPerimeter;" parent="TrnmHSG4BdzwyE5MJGU8-1" vertex="1">
          <mxGeometry x="160" y="520" width="10" height="80" as="geometry" />
        </mxCell>
        <mxCell id="TrnmHSG4BdzwyE5MJGU8-40" value="name" style="endArrow=block;endFill=1;html=1;edgeStyle=orthogonalEdgeStyle;align=left;verticalAlign=top;exitX=0.8;exitY=1.038;exitDx=0;exitDy=0;exitPerimeter=0;" parent="TrnmHSG4BdzwyE5MJGU8-1" source="TrnmHSG4BdzwyE5MJGU8-38" target="TrnmHSG4BdzwyE5MJGU8-36" edge="1">
          <mxGeometry x="-1" relative="1" as="geometry">
            <mxPoint x="340" y="440" as="sourcePoint" />
            <mxPoint x="610" y="560" as="targetPoint" />
            <Array as="points">
              <mxPoint x="490" y="603" />
              <mxPoint x="490" y="603" />
            </Array>
          </mxGeometry>
        </mxCell>
        <mxCell id="TrnmHSG4BdzwyE5MJGU8-41" value="1" style="edgeLabel;resizable=0;html=1;align=left;verticalAlign=bottom;" parent="TrnmHSG4BdzwyE5MJGU8-40" connectable="0" vertex="1">
          <mxGeometry x="-1" relative="1" as="geometry" />
        </mxCell>
        <mxCell id="TrnmHSG4BdzwyE5MJGU8-42" value="&lt;p style=&quot;margin: 0px ; font-stretch: normal ; font-size: 14px ; line-height: normal ; font-family: &amp;#34;menlo&amp;#34; ; color: rgb(50 , 109 , 116)&quot;&gt;handleResultOfFacebookLogin()&lt;/p&gt;" style="edgeLabel;html=1;align=center;verticalAlign=middle;resizable=0;points=[];" parent="TrnmHSG4BdzwyE5MJGU8-40" vertex="1" connectable="0">
          <mxGeometry x="-0.2602" y="2" relative="1" as="geometry">
            <mxPoint x="65" as="offset" />
          </mxGeometry>
        </mxCell>
        <mxCell id="TrnmHSG4BdzwyE5MJGU8-43" value="기존 페이스북 회원의 로그인 성공케이스" style="text;html=1;strokeColor=none;fillColor=none;align=center;verticalAlign=middle;whiteSpace=wrap;rounded=0;" parent="TrnmHSG4BdzwyE5MJGU8-1" vertex="1">
          <mxGeometry x="90" y="230" width="90" height="20" as="geometry" />
        </mxCell>
        <mxCell id="TrnmHSG4BdzwyE5MJGU8-44" value="&lt;p style=&quot;margin: 0px ; font-stretch: normal ; font-size: 14px ; line-height: normal ; font-family: &amp;#34;menlo&amp;#34; ; color: rgb(28 , 70 , 74) ; background-color: rgb(255 , 255 , 255)&quot;&gt;GraphRequest&lt;/p&gt;" style="shape=umlLifeline;perimeter=lifelinePerimeter;whiteSpace=wrap;html=1;container=1;collapsible=0;recursiveResize=0;outlineConnect=0;" parent="TrnmHSG4BdzwyE5MJGU8-1" vertex="1">
          <mxGeometry x="740" y="290" width="150" height="700" as="geometry" />
        </mxCell>
        <mxCell id="TrnmHSG4BdzwyE5MJGU8-45" value="" style="html=1;points=[];perimeter=orthogonalPerimeter;" parent="TrnmHSG4BdzwyE5MJGU8-1" vertex="1">
          <mxGeometry x="615" y="600" width="10" height="80" as="geometry" />
        </mxCell>
        <mxCell id="TrnmHSG4BdzwyE5MJGU8-46" value="start()" style="endArrow=open;endFill=1;endSize=12;html=1;" parent="TrnmHSG4BdzwyE5MJGU8-1" target="TrnmHSG4BdzwyE5MJGU8-44" edge="1">
          <mxGeometry width="160" relative="1" as="geometry">
            <mxPoint x="625" y="680" as="sourcePoint" />
            <mxPoint x="785" y="680" as="targetPoint" />
          </mxGeometry>
        </mxCell>
        <mxCell id="TrnmHSG4BdzwyE5MJGU8-47" value="&lt;p style=&quot;margin: 0px ; font-stretch: normal ; font-size: 14px ; line-height: normal ; font-family: &amp;#34;menlo&amp;#34; ; color: rgba(0 , 0 , 0 , 0.85) ; background-color: rgb(255 , 255 , 255)&quot;&gt;AuthenticationHelper&lt;/p&gt;" style="shape=umlLifeline;perimeter=lifelinePerimeter;whiteSpace=wrap;html=1;container=1;collapsible=0;recursiveResize=0;outlineConnect=0;" parent="TrnmHSG4BdzwyE5MJGU8-1" vertex="1">
          <mxGeometry x="950" y="290" width="200" height="690" as="geometry" />
        </mxCell>
        <mxCell id="TrnmHSG4BdzwyE5MJGU8-48" value="" style="html=1;points=[];perimeter=orthogonalPerimeter;" parent="TrnmHSG4BdzwyE5MJGU8-1" vertex="1">
          <mxGeometry x="810" y="680" width="10" height="80" as="geometry" />
        </mxCell>
        <mxCell id="TrnmHSG4BdzwyE5MJGU8-49" value="" style="endArrow=open;endFill=1;endSize=12;html=1;exitX=-0.2;exitY=0.975;exitDx=0;exitDy=0;exitPerimeter=0;" parent="TrnmHSG4BdzwyE5MJGU8-1" source="TrnmHSG4BdzwyE5MJGU8-48" target="TrnmHSG4BdzwyE5MJGU8-47" edge="1">
          <mxGeometry width="160" relative="1" as="geometry">
            <mxPoint x="1040" y="530" as="sourcePoint" />
            <mxPoint x="1200" y="530" as="targetPoint" />
          </mxGeometry>
        </mxCell>
        <mxCell id="TrnmHSG4BdzwyE5MJGU8-50" value="&lt;p style=&quot;margin: 0px ; font-stretch: normal ; font-size: 14px ; line-height: normal ; font-family: &amp;#34;menlo&amp;#34; ; color: rgb(50 , 109 , 116)&quot;&gt;doAuthentication()&lt;/p&gt;" style="edgeLabel;html=1;align=center;verticalAlign=middle;resizable=0;points=[];" parent="TrnmHSG4BdzwyE5MJGU8-49" vertex="1" connectable="0">
          <mxGeometry x="-0.0973" y="3" relative="1" as="geometry">
            <mxPoint x="13" as="offset" />
          </mxGeometry>
        </mxCell>
        <mxCell id="TrnmHSG4BdzwyE5MJGU8-51" value="&lt;p style=&quot;margin: 0px ; font-stretch: normal ; font-size: 14px ; line-height: normal ; font-family: &amp;#34;menlo&amp;#34; ; color: rgba(0 , 0 , 0 , 0.85) ; background-color: rgb(255 , 255 , 255)&quot;&gt;UserAuthenticationService&lt;/p&gt;" style="shape=umlLifeline;perimeter=lifelinePerimeter;whiteSpace=wrap;html=1;container=1;collapsible=0;recursiveResize=0;outlineConnect=0;" parent="TrnmHSG4BdzwyE5MJGU8-1" vertex="1">
          <mxGeometry x="1200" y="290" width="230" height="670" as="geometry" />
        </mxCell>
        <mxCell id="TrnmHSG4BdzwyE5MJGU8-52" value="" style="html=1;points=[];perimeter=orthogonalPerimeter;" parent="TrnmHSG4BdzwyE5MJGU8-1" vertex="1">
          <mxGeometry x="1045" y="760" width="10" height="80" as="geometry" />
        </mxCell>
        <mxCell id="TrnmHSG4BdzwyE5MJGU8-53" value="request(.signIn)" style="endArrow=open;endFill=1;endSize=12;html=1;exitX=0.9;exitY=0.95;exitDx=0;exitDy=0;exitPerimeter=0;" parent="TrnmHSG4BdzwyE5MJGU8-1" source="TrnmHSG4BdzwyE5MJGU8-52" target="TrnmHSG4BdzwyE5MJGU8-51" edge="1">
          <mxGeometry width="160" relative="1" as="geometry">
            <mxPoint x="1040" y="530" as="sourcePoint" />
            <mxPoint x="1200" y="530" as="targetPoint" />
          </mxGeometry>
        </mxCell>
        <mxCell id="TrnmHSG4BdzwyE5MJGU8-54" value="" style="endArrow=open;endFill=1;endSize=12;html=1;" parent="TrnmHSG4BdzwyE5MJGU8-1" edge="1">
          <mxGeometry width="160" relative="1" as="geometry">
            <mxPoint x="880" y="760" as="sourcePoint" />
            <mxPoint x="1040" y="760" as="targetPoint" />
          </mxGeometry>
        </mxCell>
        <mxCell id="TrnmHSG4BdzwyE5MJGU8-55" value="" style="endArrow=open;endFill=1;endSize=12;html=1;" parent="TrnmHSG4BdzwyE5MJGU8-1" source="TrnmHSG4BdzwyE5MJGU8-51" edge="1">
          <mxGeometry width="160" relative="1" as="geometry">
            <mxPoint x="1315" y="970" as="sourcePoint" />
            <mxPoint x="630" y="910" as="targetPoint" />
            <Array as="points">
              <mxPoint x="1280" y="910" />
            </Array>
          </mxGeometry>
        </mxCell>
        <mxCell id="TrnmHSG4BdzwyE5MJGU8-57" value="&lt;p style=&quot;margin: 0px ; font-stretch: normal ; font-size: 14px ; line-height: normal ; font-family: &amp;#34;menlo&amp;#34; ; color: rgba(0 , 0 , 0 , 0.85)&quot;&gt;receivedSuccess()&lt;/p&gt;" style="edgeLabel;html=1;align=center;verticalAlign=middle;resizable=0;points=[];" parent="TrnmHSG4BdzwyE5MJGU8-55" vertex="1" connectable="0">
          <mxGeometry x="0.0617" y="2" relative="1" as="geometry">
            <mxPoint as="offset" />
          </mxGeometry>
        </mxCell>
        <mxCell id="TrnmHSG4BdzwyE5MJGU8-56" value="" style="html=1;points=[];perimeter=orthogonalPerimeter;" parent="TrnmHSG4BdzwyE5MJGU8-1" vertex="1">
          <mxGeometry x="1310" y="830" width="10" height="80" as="geometry" />
        </mxCell>
      </root>
    </mxGraphModel>
  </diagram>
  <diagram id="YExwbkYfZ-909aZ963nh" name="Facebook signup">
    <mxGraphModel dx="1057" dy="865" grid="1" gridSize="10" guides="1" tooltips="1" connect="1" arrows="1" fold="1" page="1" pageScale="1" pageWidth="850" pageHeight="1100" math="0" shadow="0">
      <root>
        <mxCell id="OJbX6PTRtBSj1pZ_Wsae-0" />
        <mxCell id="OJbX6PTRtBSj1pZ_Wsae-1" parent="OJbX6PTRtBSj1pZ_Wsae-0" />
        <mxCell id="AueLEDbDGfQYcLZg3Gd8-0" value="&lt;span style=&quot;font-weight: bold&quot;&gt;WalkthroughViewController&lt;/span&gt;" style="shape=umlLifeline;perimeter=lifelinePerimeter;whiteSpace=wrap;html=1;container=1;collapsible=0;recursiveResize=0;outlineConnect=0;" vertex="1" parent="OJbX6PTRtBSj1pZ_Wsae-1">
          <mxGeometry x="80" y="290" width="170" height="720" as="geometry" />
        </mxCell>
        <mxCell id="AueLEDbDGfQYcLZg3Gd8-1" value="&lt;p style=&quot;margin: 0px ; font-stretch: normal ; font-size: 14px ; line-height: normal ; font-family: &amp;#34;menlo&amp;#34; ; color: rgb(28 , 70 , 74) ; background-color: rgb(255 , 255 , 255)&quot;&gt;FacebookLoginHelper&lt;/p&gt;" style="shape=umlLifeline;perimeter=lifelinePerimeter;whiteSpace=wrap;html=1;container=1;collapsible=0;recursiveResize=0;outlineConnect=0;" vertex="1" parent="OJbX6PTRtBSj1pZ_Wsae-1">
          <mxGeometry x="320" y="290" width="170" height="710" as="geometry" />
        </mxCell>
        <mxCell id="AueLEDbDGfQYcLZg3Gd8-2" value="" style="html=1;points=[];perimeter=orthogonalPerimeter;" vertex="1" parent="AueLEDbDGfQYcLZg3Gd8-1">
          <mxGeometry x="75.5" y="110" width="10" height="80" as="geometry" />
        </mxCell>
        <mxCell id="AueLEDbDGfQYcLZg3Gd8-3" value="&lt;p style=&quot;margin: 0px ; font-stretch: normal ; line-height: normal ; font-family: &amp;#34;menlo&amp;#34; ; color: rgba(0 , 0 , 0 , 0.85) ; font-size: 12px&quot;&gt;touchFacebookStartButton()&lt;/p&gt;&lt;p style=&quot;margin: 0px ; font-stretch: normal ; line-height: normal ; font-family: &amp;#34;menlo&amp;#34; ; color: rgba(0 , 0 , 0 , 0.85) ; font-size: 12px&quot;&gt;&amp;gt;&amp;nbsp;&lt;span style=&quot;color: rgb(50 , 109 , 116)&quot;&gt;doFacebookLogin()&lt;/span&gt;&lt;/p&gt;" style="html=1;verticalAlign=bottom;endArrow=block;entryX=0;entryY=0;" edge="1" parent="OJbX6PTRtBSj1pZ_Wsae-1" source="AueLEDbDGfQYcLZg3Gd8-0" target="AueLEDbDGfQYcLZg3Gd8-2">
          <mxGeometry relative="1" as="geometry">
            <mxPoint x="180" y="400" as="sourcePoint" />
          </mxGeometry>
        </mxCell>
        <mxCell id="AueLEDbDGfQYcLZg3Gd8-4" value="&lt;span style=&quot;font-weight: bold&quot;&gt;WalkthroughViewModel&lt;/span&gt;" style="shape=umlLifeline;perimeter=lifelinePerimeter;whiteSpace=wrap;html=1;container=1;collapsible=0;recursiveResize=0;outlineConnect=0;" vertex="1" parent="OJbX6PTRtBSj1pZ_Wsae-1">
          <mxGeometry x="540" y="290" width="160" height="710" as="geometry" />
        </mxCell>
        <mxCell id="AueLEDbDGfQYcLZg3Gd8-5" value="&lt;span style=&quot;color: rgb(50 , 109 , 116) ; font-family: &amp;#34;menlo&amp;#34; ; font-size: 12px&quot;&gt;handleResultOfFacebookLogin()&lt;/span&gt;" style="html=1;verticalAlign=bottom;endArrow=open;dashed=1;endSize=8;" edge="1" parent="OJbX6PTRtBSj1pZ_Wsae-1" source="AueLEDbDGfQYcLZg3Gd8-1" target="AueLEDbDGfQYcLZg3Gd8-0">
          <mxGeometry relative="1" as="geometry">
            <mxPoint x="460" y="440" as="sourcePoint" />
            <mxPoint x="380" y="440" as="targetPoint" />
            <Array as="points">
              <mxPoint x="340" y="520" />
            </Array>
          </mxGeometry>
        </mxCell>
        <mxCell id="AueLEDbDGfQYcLZg3Gd8-6" value="" style="html=1;points=[];perimeter=orthogonalPerimeter;" vertex="1" parent="OJbX6PTRtBSj1pZ_Wsae-1">
          <mxGeometry x="160" y="520" width="10" height="80" as="geometry" />
        </mxCell>
        <mxCell id="AueLEDbDGfQYcLZg3Gd8-7" value="name" style="endArrow=block;endFill=1;html=1;edgeStyle=orthogonalEdgeStyle;align=left;verticalAlign=top;exitX=0.8;exitY=1.038;exitDx=0;exitDy=0;exitPerimeter=0;" edge="1" parent="OJbX6PTRtBSj1pZ_Wsae-1" source="AueLEDbDGfQYcLZg3Gd8-6" target="AueLEDbDGfQYcLZg3Gd8-4">
          <mxGeometry x="-1" relative="1" as="geometry">
            <mxPoint x="340" y="440" as="sourcePoint" />
            <mxPoint x="610" y="560" as="targetPoint" />
            <Array as="points">
              <mxPoint x="490" y="603" />
              <mxPoint x="490" y="603" />
            </Array>
          </mxGeometry>
        </mxCell>
        <mxCell id="AueLEDbDGfQYcLZg3Gd8-8" value="1" style="edgeLabel;resizable=0;html=1;align=left;verticalAlign=bottom;" connectable="0" vertex="1" parent="AueLEDbDGfQYcLZg3Gd8-7">
          <mxGeometry x="-1" relative="1" as="geometry" />
        </mxCell>
        <mxCell id="AueLEDbDGfQYcLZg3Gd8-9" value="&lt;p style=&quot;margin: 0px ; font-stretch: normal ; font-size: 14px ; line-height: normal ; font-family: &amp;#34;menlo&amp;#34; ; color: rgb(50 , 109 , 116)&quot;&gt;handleResultOfFacebookLogin()&lt;/p&gt;" style="edgeLabel;html=1;align=center;verticalAlign=middle;resizable=0;points=[];" vertex="1" connectable="0" parent="AueLEDbDGfQYcLZg3Gd8-7">
          <mxGeometry x="-0.2602" y="2" relative="1" as="geometry">
            <mxPoint x="65" as="offset" />
          </mxGeometry>
        </mxCell>
        <mxCell id="AueLEDbDGfQYcLZg3Gd8-10" value="기존 페이스북 회원의 로그인 성공케이스" style="text;html=1;strokeColor=none;fillColor=none;align=center;verticalAlign=middle;whiteSpace=wrap;rounded=0;" vertex="1" parent="OJbX6PTRtBSj1pZ_Wsae-1">
          <mxGeometry x="90" y="230" width="90" height="20" as="geometry" />
        </mxCell>
        <mxCell id="AueLEDbDGfQYcLZg3Gd8-11" value="&lt;p style=&quot;margin: 0px ; font-stretch: normal ; font-size: 14px ; line-height: normal ; font-family: &amp;#34;menlo&amp;#34; ; color: rgb(28 , 70 , 74) ; background-color: rgb(255 , 255 , 255)&quot;&gt;GraphRequest&lt;/p&gt;" style="shape=umlLifeline;perimeter=lifelinePerimeter;whiteSpace=wrap;html=1;container=1;collapsible=0;recursiveResize=0;outlineConnect=0;" vertex="1" parent="OJbX6PTRtBSj1pZ_Wsae-1">
          <mxGeometry x="740" y="290" width="150" height="700" as="geometry" />
        </mxCell>
        <mxCell id="AueLEDbDGfQYcLZg3Gd8-12" value="" style="html=1;points=[];perimeter=orthogonalPerimeter;" vertex="1" parent="OJbX6PTRtBSj1pZ_Wsae-1">
          <mxGeometry x="615" y="600" width="10" height="80" as="geometry" />
        </mxCell>
        <mxCell id="AueLEDbDGfQYcLZg3Gd8-13" value="start()" style="endArrow=open;endFill=1;endSize=12;html=1;" edge="1" parent="OJbX6PTRtBSj1pZ_Wsae-1" target="AueLEDbDGfQYcLZg3Gd8-11">
          <mxGeometry width="160" relative="1" as="geometry">
            <mxPoint x="625" y="680" as="sourcePoint" />
            <mxPoint x="785" y="680" as="targetPoint" />
          </mxGeometry>
        </mxCell>
        <mxCell id="AueLEDbDGfQYcLZg3Gd8-14" value="&lt;p style=&quot;margin: 0px ; font-stretch: normal ; font-size: 14px ; line-height: normal ; font-family: &amp;#34;menlo&amp;#34; ; color: rgba(0 , 0 , 0 , 0.85) ; background-color: rgb(255 , 255 , 255)&quot;&gt;AuthenticationHelper&lt;/p&gt;" style="shape=umlLifeline;perimeter=lifelinePerimeter;whiteSpace=wrap;html=1;container=1;collapsible=0;recursiveResize=0;outlineConnect=0;" vertex="1" parent="OJbX6PTRtBSj1pZ_Wsae-1">
          <mxGeometry x="950" y="290" width="200" height="690" as="geometry" />
        </mxCell>
        <mxCell id="AueLEDbDGfQYcLZg3Gd8-15" value="" style="html=1;points=[];perimeter=orthogonalPerimeter;" vertex="1" parent="OJbX6PTRtBSj1pZ_Wsae-1">
          <mxGeometry x="810" y="680" width="10" height="80" as="geometry" />
        </mxCell>
        <mxCell id="AueLEDbDGfQYcLZg3Gd8-16" value="" style="endArrow=open;endFill=1;endSize=12;html=1;exitX=-0.2;exitY=0.975;exitDx=0;exitDy=0;exitPerimeter=0;" edge="1" parent="OJbX6PTRtBSj1pZ_Wsae-1" source="AueLEDbDGfQYcLZg3Gd8-15" target="AueLEDbDGfQYcLZg3Gd8-14">
          <mxGeometry width="160" relative="1" as="geometry">
            <mxPoint x="1040" y="530" as="sourcePoint" />
            <mxPoint x="1200" y="530" as="targetPoint" />
          </mxGeometry>
        </mxCell>
        <mxCell id="AueLEDbDGfQYcLZg3Gd8-17" value="&lt;p style=&quot;margin: 0px ; font-stretch: normal ; font-size: 14px ; line-height: normal ; font-family: &amp;#34;menlo&amp;#34; ; color: rgb(50 , 109 , 116)&quot;&gt;doAuthentication()&lt;/p&gt;" style="edgeLabel;html=1;align=center;verticalAlign=middle;resizable=0;points=[];" vertex="1" connectable="0" parent="AueLEDbDGfQYcLZg3Gd8-16">
          <mxGeometry x="-0.0973" y="3" relative="1" as="geometry">
            <mxPoint x="13" as="offset" />
          </mxGeometry>
        </mxCell>
        <mxCell id="AueLEDbDGfQYcLZg3Gd8-18" value="&lt;p style=&quot;margin: 0px ; font-stretch: normal ; font-size: 14px ; line-height: normal ; font-family: &amp;#34;menlo&amp;#34; ; color: rgba(0 , 0 , 0 , 0.85) ; background-color: rgb(255 , 255 , 255)&quot;&gt;UserAuthenticationService&lt;/p&gt;" style="shape=umlLifeline;perimeter=lifelinePerimeter;whiteSpace=wrap;html=1;container=1;collapsible=0;recursiveResize=0;outlineConnect=0;" vertex="1" parent="OJbX6PTRtBSj1pZ_Wsae-1">
          <mxGeometry x="1200" y="290" width="230" height="670" as="geometry" />
        </mxCell>
        <mxCell id="AueLEDbDGfQYcLZg3Gd8-19" value="" style="html=1;points=[];perimeter=orthogonalPerimeter;" vertex="1" parent="OJbX6PTRtBSj1pZ_Wsae-1">
          <mxGeometry x="1045" y="760" width="10" height="80" as="geometry" />
        </mxCell>
        <mxCell id="AueLEDbDGfQYcLZg3Gd8-20" value="request(.signIn)" style="endArrow=open;endFill=1;endSize=12;html=1;exitX=0.9;exitY=0.95;exitDx=0;exitDy=0;exitPerimeter=0;" edge="1" parent="OJbX6PTRtBSj1pZ_Wsae-1" source="AueLEDbDGfQYcLZg3Gd8-19" target="AueLEDbDGfQYcLZg3Gd8-18">
          <mxGeometry width="160" relative="1" as="geometry">
            <mxPoint x="1040" y="530" as="sourcePoint" />
            <mxPoint x="1200" y="530" as="targetPoint" />
          </mxGeometry>
        </mxCell>
        <mxCell id="AueLEDbDGfQYcLZg3Gd8-21" value="" style="endArrow=open;endFill=1;endSize=12;html=1;" edge="1" parent="OJbX6PTRtBSj1pZ_Wsae-1">
          <mxGeometry width="160" relative="1" as="geometry">
            <mxPoint x="880" y="760" as="sourcePoint" />
            <mxPoint x="1040" y="760" as="targetPoint" />
          </mxGeometry>
        </mxCell>
        <mxCell id="AueLEDbDGfQYcLZg3Gd8-22" value="" style="endArrow=open;endFill=1;endSize=12;html=1;" edge="1" parent="OJbX6PTRtBSj1pZ_Wsae-1" source="AueLEDbDGfQYcLZg3Gd8-18">
          <mxGeometry width="160" relative="1" as="geometry">
            <mxPoint x="1315" y="970" as="sourcePoint" />
            <mxPoint x="630" y="910" as="targetPoint" />
            <Array as="points">
              <mxPoint x="1280" y="910" />
            </Array>
          </mxGeometry>
        </mxCell>
        <mxCell id="AueLEDbDGfQYcLZg3Gd8-23" value="&lt;p style=&quot;margin: 0px ; font-stretch: normal ; font-size: 14px ; line-height: normal ; font-family: &amp;#34;menlo&amp;#34; ; color: rgba(0 , 0 , 0 , 0.85)&quot;&gt;receivedSuccess()&lt;/p&gt;" style="edgeLabel;html=1;align=center;verticalAlign=middle;resizable=0;points=[];" vertex="1" connectable="0" parent="AueLEDbDGfQYcLZg3Gd8-22">
          <mxGeometry x="0.0617" y="2" relative="1" as="geometry">
            <mxPoint as="offset" />
          </mxGeometry>
        </mxCell>
        <mxCell id="AueLEDbDGfQYcLZg3Gd8-24" value="" style="html=1;points=[];perimeter=orthogonalPerimeter;" vertex="1" parent="OJbX6PTRtBSj1pZ_Wsae-1">
          <mxGeometry x="1310" y="830" width="10" height="80" as="geometry" />
        </mxCell>
      </root>
    </mxGraphModel>
  </diagram>
  <diagram id="ZkHJx16GihPronf6DQ2g" name="Facebook logout">
    <mxGraphModel dx="1057" dy="865" grid="1" gridSize="10" guides="1" tooltips="1" connect="1" arrows="1" fold="1" page="1" pageScale="1" pageWidth="850" pageHeight="1100" math="0" shadow="0">
      <root>
        <mxCell id="C8hVERgGc4LPlgR3QAZX-0" />
        <mxCell id="C8hVERgGc4LPlgR3QAZX-1" parent="C8hVERgGc4LPlgR3QAZX-0" />
      </root>
    </mxGraphModel>
  </diagram>
  <diagram id="DzD0dWhoEGHHuyM6-TuS" name="Facebook 탈퇴">
    <mxGraphModel dx="1057" dy="865" grid="1" gridSize="10" guides="1" tooltips="1" connect="1" arrows="1" fold="1" page="1" pageScale="1" pageWidth="850" pageHeight="1100" math="0" shadow="0">
      <root>
        <mxCell id="zTMkT_i8QF6g7CHtRBqC-0" />
        <mxCell id="zTMkT_i8QF6g7CHtRBqC-1" parent="zTMkT_i8QF6g7CHtRBqC-0" />
      </root>
    </mxGraphModel>
  </diagram>
  <diagram id="w1dErKIjIapuR6-p-dnD" name="로그인 activity">
    <mxGraphModel dx="705" dy="645" grid="1" gridSize="10" guides="1" tooltips="1" connect="1" arrows="1" fold="1" page="1" pageScale="1" pageWidth="850" pageHeight="1100" math="0" shadow="0">
      <root>
        <mxCell id="u_kTxpH61WWehxEOvNpR-0" />
        <mxCell id="u_kTxpH61WWehxEOvNpR-1" parent="u_kTxpH61WWehxEOvNpR-0" />
        <mxCell id="u_kTxpH61WWehxEOvNpR-3" value="로그인 Activity diagram&lt;br&gt;" style="text;html=1;align=center;verticalAlign=middle;resizable=0;points=[];autosize=1;strokeColor=none;" parent="u_kTxpH61WWehxEOvNpR-1" vertex="1">
          <mxGeometry x="80" y="30" width="130" height="20" as="geometry" />
        </mxCell>
        <mxCell id="znTexVbTJGctxC3_0h5k-2" value="" style="ellipse;html=1;shape=startState;fillColor=#000000;strokeColor=#ff0000;" vertex="1" parent="u_kTxpH61WWehxEOvNpR-1">
          <mxGeometry x="480" y="70" width="30" height="30" as="geometry" />
        </mxCell>
        <mxCell id="znTexVbTJGctxC3_0h5k-3" value="" style="edgeStyle=orthogonalEdgeStyle;html=1;verticalAlign=bottom;endArrow=open;endSize=8;strokeColor=#ff0000;" edge="1" source="znTexVbTJGctxC3_0h5k-2" parent="u_kTxpH61WWehxEOvNpR-1">
          <mxGeometry relative="1" as="geometry">
            <mxPoint x="495" y="160" as="targetPoint" />
          </mxGeometry>
        </mxCell>
        <mxCell id="rt5PsmfTOVGFWf7QO8p9-2" value="presentedViewController" style="edgeLabel;html=1;align=center;verticalAlign=middle;resizable=0;points=[];" vertex="1" connectable="0" parent="znTexVbTJGctxC3_0h5k-3">
          <mxGeometry x="0.0333" y="2" relative="1" as="geometry">
            <mxPoint as="offset" />
          </mxGeometry>
        </mxCell>
        <mxCell id="rt5PsmfTOVGFWf7QO8p9-0" value="Facebook 로그인 요청" style="rounded=1;whiteSpace=wrap;html=1;arcSize=40;fontColor=#000000;fillColor=#ffffc0;strokeColor=#ff0000;" vertex="1" parent="u_kTxpH61WWehxEOvNpR-1">
          <mxGeometry x="435" y="160" width="120" height="40" as="geometry" />
        </mxCell>
        <mxCell id="rt5PsmfTOVGFWf7QO8p9-1" value="" style="edgeStyle=orthogonalEdgeStyle;html=1;verticalAlign=bottom;endArrow=open;endSize=8;strokeColor=#ff0000;" edge="1" source="rt5PsmfTOVGFWf7QO8p9-0" parent="u_kTxpH61WWehxEOvNpR-1" target="rt5PsmfTOVGFWf7QO8p9-6">
          <mxGeometry relative="1" as="geometry">
            <mxPoint x="495" y="260" as="targetPoint" />
          </mxGeometry>
        </mxCell>
        <mxCell id="rt5PsmfTOVGFWf7QO8p9-23" value="토큰, 이메일 접근 권한이 있는지 여부, userId, 사용자가 취소여부" style="edgeLabel;html=1;align=center;verticalAlign=middle;resizable=0;points=[];" vertex="1" connectable="0" parent="rt5PsmfTOVGFWf7QO8p9-1">
          <mxGeometry x="-0.16" y="3" relative="1" as="geometry">
            <mxPoint as="offset" />
          </mxGeometry>
        </mxCell>
        <mxCell id="rt5PsmfTOVGFWf7QO8p9-10" value=",사용자취소" style="edgeStyle=orthogonalEdgeStyle;rounded=0;orthogonalLoop=1;jettySize=auto;html=1;" edge="1" parent="u_kTxpH61WWehxEOvNpR-1" source="rt5PsmfTOVGFWf7QO8p9-3" target="rt5PsmfTOVGFWf7QO8p9-8">
          <mxGeometry relative="1" as="geometry" />
        </mxCell>
        <mxCell id="rt5PsmfTOVGFWf7QO8p9-3" value="Condition" style="rhombus;whiteSpace=wrap;html=1;fillColor=#ffffc0;strokeColor=#ff0000;" vertex="1" parent="u_kTxpH61WWehxEOvNpR-1">
          <mxGeometry x="455" y="370" width="80" height="40" as="geometry" />
        </mxCell>
        <mxCell id="rt5PsmfTOVGFWf7QO8p9-4" value="error" style="edgeStyle=orthogonalEdgeStyle;html=1;align=left;verticalAlign=bottom;endArrow=open;endSize=8;strokeColor=#ff0000;" edge="1" source="rt5PsmfTOVGFWf7QO8p9-3" parent="u_kTxpH61WWehxEOvNpR-1">
          <mxGeometry x="-1" relative="1" as="geometry">
            <mxPoint x="630" y="390" as="targetPoint" />
          </mxGeometry>
        </mxCell>
        <mxCell id="rt5PsmfTOVGFWf7QO8p9-5" value="success" style="edgeStyle=orthogonalEdgeStyle;html=1;align=left;verticalAlign=top;endArrow=open;endSize=8;strokeColor=#ff0000;" edge="1" source="rt5PsmfTOVGFWf7QO8p9-3" parent="u_kTxpH61WWehxEOvNpR-1">
          <mxGeometry x="-0.3333" y="-15" relative="1" as="geometry">
            <mxPoint x="495" y="470" as="targetPoint" />
            <mxPoint as="offset" />
          </mxGeometry>
        </mxCell>
        <mxCell id="rt5PsmfTOVGFWf7QO8p9-7" value="" style="edgeStyle=orthogonalEdgeStyle;rounded=0;orthogonalLoop=1;jettySize=auto;html=1;" edge="1" parent="u_kTxpH61WWehxEOvNpR-1" source="rt5PsmfTOVGFWf7QO8p9-6" target="rt5PsmfTOVGFWf7QO8p9-3">
          <mxGeometry relative="1" as="geometry" />
        </mxCell>
        <mxCell id="rt5PsmfTOVGFWf7QO8p9-6" value="로딩뷰 표시" style="rounded=1;whiteSpace=wrap;html=1;arcSize=40;fontColor=#000000;fillColor=#ffffc0;strokeColor=#ff0000;" vertex="1" parent="u_kTxpH61WWehxEOvNpR-1">
          <mxGeometry x="435" y="250" width="120" height="40" as="geometry" />
        </mxCell>
        <mxCell id="rt5PsmfTOVGFWf7QO8p9-8" value="Activity" style="rounded=1;whiteSpace=wrap;html=1;arcSize=40;fontColor=#000000;fillColor=#ffffc0;strokeColor=#ff0000;" vertex="1" parent="u_kTxpH61WWehxEOvNpR-1">
          <mxGeometry x="260" y="370" width="120" height="40" as="geometry" />
        </mxCell>
        <mxCell id="rt5PsmfTOVGFWf7QO8p9-9" value="" style="edgeStyle=orthogonalEdgeStyle;html=1;verticalAlign=bottom;endArrow=open;endSize=8;strokeColor=#ff0000;" edge="1" source="rt5PsmfTOVGFWf7QO8p9-8" parent="u_kTxpH61WWehxEOvNpR-1">
          <mxGeometry relative="1" as="geometry">
            <mxPoint x="320" y="470" as="targetPoint" />
          </mxGeometry>
        </mxCell>
        <mxCell id="rt5PsmfTOVGFWf7QO8p9-12" value="Condition" style="rhombus;whiteSpace=wrap;html=1;fillColor=#ffffc0;strokeColor=#ff0000;" vertex="1" parent="u_kTxpH61WWehxEOvNpR-1">
          <mxGeometry x="455" y="470" width="80" height="40" as="geometry" />
        </mxCell>
        <mxCell id="rt5PsmfTOVGFWf7QO8p9-13" value="이메일 접근 권한이 없음" style="edgeStyle=orthogonalEdgeStyle;html=1;align=left;verticalAlign=bottom;endArrow=open;endSize=8;strokeColor=#ff0000;" edge="1" source="rt5PsmfTOVGFWf7QO8p9-12" parent="u_kTxpH61WWehxEOvNpR-1">
          <mxGeometry x="-1" relative="1" as="geometry">
            <mxPoint x="635" y="490" as="targetPoint" />
          </mxGeometry>
        </mxCell>
        <mxCell id="rt5PsmfTOVGFWf7QO8p9-14" value="&lt;span style=&quot;text-align: center&quot;&gt;이메밀 접근 권한이 있음 &amp;amp; 토큰이 있음&lt;/span&gt;" style="edgeStyle=orthogonalEdgeStyle;html=1;align=left;verticalAlign=top;endArrow=open;endSize=8;strokeColor=#ff0000;" edge="1" source="rt5PsmfTOVGFWf7QO8p9-12" parent="u_kTxpH61WWehxEOvNpR-1">
          <mxGeometry x="-0.6667" y="15" relative="1" as="geometry">
            <mxPoint x="495" y="570" as="targetPoint" />
            <mxPoint as="offset" />
          </mxGeometry>
        </mxCell>
        <mxCell id="rt5PsmfTOVGFWf7QO8p9-16" value="페이스북에 사용자 정보 요청&lt;br&gt;(이름, 이메일, 프로필이미지 url)" style="rounded=1;whiteSpace=wrap;html=1;arcSize=40;fontColor=#000000;fillColor=#ffffc0;strokeColor=#ff0000;" vertex="1" parent="u_kTxpH61WWehxEOvNpR-1">
          <mxGeometry x="435" y="570" width="120" height="40" as="geometry" />
        </mxCell>
        <mxCell id="rt5PsmfTOVGFWf7QO8p9-17" value="" style="edgeStyle=orthogonalEdgeStyle;html=1;verticalAlign=bottom;endArrow=open;endSize=8;strokeColor=#ff0000;" edge="1" source="rt5PsmfTOVGFWf7QO8p9-16" parent="u_kTxpH61WWehxEOvNpR-1">
          <mxGeometry relative="1" as="geometry">
            <mxPoint x="495" y="670" as="targetPoint" />
          </mxGeometry>
        </mxCell>
        <mxCell id="rt5PsmfTOVGFWf7QO8p9-18" value="Condition" style="rhombus;whiteSpace=wrap;html=1;fillColor=#ffffc0;strokeColor=#ff0000;" vertex="1" parent="u_kTxpH61WWehxEOvNpR-1">
          <mxGeometry x="455" y="670" width="80" height="40" as="geometry" />
        </mxCell>
        <mxCell id="rt5PsmfTOVGFWf7QO8p9-19" value="error" style="edgeStyle=orthogonalEdgeStyle;html=1;align=left;verticalAlign=bottom;endArrow=open;endSize=8;strokeColor=#ff0000;" edge="1" source="rt5PsmfTOVGFWf7QO8p9-18" parent="u_kTxpH61WWehxEOvNpR-1">
          <mxGeometry x="-1" relative="1" as="geometry">
            <mxPoint x="635" y="690" as="targetPoint" />
          </mxGeometry>
        </mxCell>
        <mxCell id="rt5PsmfTOVGFWf7QO8p9-20" value="success&lt;br&gt;" style="edgeStyle=orthogonalEdgeStyle;html=1;align=left;verticalAlign=top;endArrow=open;endSize=8;strokeColor=#ff0000;" edge="1" source="rt5PsmfTOVGFWf7QO8p9-18" parent="u_kTxpH61WWehxEOvNpR-1">
          <mxGeometry x="-1" relative="1" as="geometry">
            <mxPoint x="495" y="770" as="targetPoint" />
          </mxGeometry>
        </mxCell>
        <mxCell id="rt5PsmfTOVGFWf7QO8p9-21" value="사용자 정보를 캐싱&lt;br&gt;(WalkthroughViewModel&amp;gt;preferredInfo)" style="rounded=1;whiteSpace=wrap;html=1;arcSize=40;fontColor=#000000;fillColor=#ffffc0;strokeColor=#ff0000;" vertex="1" parent="u_kTxpH61WWehxEOvNpR-1">
          <mxGeometry x="440" y="770" width="120" height="40" as="geometry" />
        </mxCell>
        <mxCell id="rt5PsmfTOVGFWf7QO8p9-22" value="" style="edgeStyle=orthogonalEdgeStyle;html=1;verticalAlign=bottom;endArrow=open;endSize=8;strokeColor=#ff0000;" edge="1" source="rt5PsmfTOVGFWf7QO8p9-21" parent="u_kTxpH61WWehxEOvNpR-1">
          <mxGeometry relative="1" as="geometry">
            <mxPoint x="500" y="870" as="targetPoint" />
          </mxGeometry>
        </mxCell>
        <mxCell id="rt5PsmfTOVGFWf7QO8p9-26" value="access token, method: facebook&lt;br&gt;" style="edgeStyle=orthogonalEdgeStyle;rounded=0;orthogonalLoop=1;jettySize=auto;html=1;" edge="1" parent="u_kTxpH61WWehxEOvNpR-1" source="rt5PsmfTOVGFWf7QO8p9-24" target="rt5PsmfTOVGFWf7QO8p9-21">
          <mxGeometry relative="1" as="geometry" />
        </mxCell>
        <mxCell id="rt5PsmfTOVGFWf7QO8p9-24" value="signin API 호출" style="rounded=1;whiteSpace=wrap;html=1;arcSize=40;fontColor=#000000;fillColor=#ffffc0;strokeColor=#ff0000;" vertex="1" parent="u_kTxpH61WWehxEOvNpR-1">
          <mxGeometry x="440" y="870" width="120" height="40" as="geometry" />
        </mxCell>
        <mxCell id="rt5PsmfTOVGFWf7QO8p9-25" value="" style="edgeStyle=orthogonalEdgeStyle;html=1;verticalAlign=bottom;endArrow=open;endSize=8;strokeColor=#ff0000;" edge="1" source="rt5PsmfTOVGFWf7QO8p9-24" parent="u_kTxpH61WWehxEOvNpR-1">
          <mxGeometry relative="1" as="geometry">
            <mxPoint x="500" y="970" as="targetPoint" />
          </mxGeometry>
        </mxCell>
        <mxCell id="rt5PsmfTOVGFWf7QO8p9-27" value="Condition" style="rhombus;whiteSpace=wrap;html=1;fillColor=#ffffc0;strokeColor=#ff0000;" vertex="1" parent="u_kTxpH61WWehxEOvNpR-1">
          <mxGeometry x="460" y="970" width="80" height="40" as="geometry" />
        </mxCell>
        <mxCell id="rt5PsmfTOVGFWf7QO8p9-28" value="error" style="edgeStyle=orthogonalEdgeStyle;html=1;align=left;verticalAlign=bottom;endArrow=open;endSize=8;strokeColor=#ff0000;" edge="1" source="rt5PsmfTOVGFWf7QO8p9-27" parent="u_kTxpH61WWehxEOvNpR-1">
          <mxGeometry x="-0.8" y="20" relative="1" as="geometry">
            <mxPoint x="640" y="990" as="targetPoint" />
            <mxPoint as="offset" />
          </mxGeometry>
        </mxCell>
        <mxCell id="rt5PsmfTOVGFWf7QO8p9-29" value="성공" style="edgeStyle=orthogonalEdgeStyle;html=1;align=left;verticalAlign=top;endArrow=open;endSize=8;strokeColor=#ff0000;" edge="1" source="rt5PsmfTOVGFWf7QO8p9-27" parent="u_kTxpH61WWehxEOvNpR-1">
          <mxGeometry x="-0.3333" y="10" relative="1" as="geometry">
            <mxPoint x="500" y="1070" as="targetPoint" />
            <mxPoint as="offset" />
          </mxGeometry>
        </mxCell>
        <mxCell id="rt5PsmfTOVGFWf7QO8p9-30" value="Condition" style="rhombus;whiteSpace=wrap;html=1;fillColor=#ffffc0;strokeColor=#ff0000;" vertex="1" parent="u_kTxpH61WWehxEOvNpR-1">
          <mxGeometry x="460" y="1070" width="80" height="60" as="geometry" />
        </mxCell>
        <mxCell id="rt5PsmfTOVGFWf7QO8p9-31" value="error" style="edgeStyle=orthogonalEdgeStyle;html=1;align=left;verticalAlign=bottom;endArrow=open;endSize=8;strokeColor=#ff0000;" edge="1" source="rt5PsmfTOVGFWf7QO8p9-30" parent="u_kTxpH61WWehxEOvNpR-1">
          <mxGeometry x="-1" relative="1" as="geometry">
            <mxPoint x="630" y="1100" as="targetPoint" />
          </mxGeometry>
        </mxCell>
        <mxCell id="rt5PsmfTOVGFWf7QO8p9-32" value="" style="edgeStyle=orthogonalEdgeStyle;html=1;align=left;verticalAlign=top;endArrow=open;endSize=8;strokeColor=#ff0000;" edge="1" source="rt5PsmfTOVGFWf7QO8p9-30" parent="u_kTxpH61WWehxEOvNpR-1">
          <mxGeometry x="-1" y="146" relative="1" as="geometry">
            <mxPoint x="500" y="1190" as="targetPoint" />
            <mxPoint x="-6" y="-40" as="offset" />
          </mxGeometry>
        </mxCell>
        <mxCell id="rt5PsmfTOVGFWf7QO8p9-33" value="statusCode == 200 &amp;amp; 응답 결과가 정상적임" style="edgeLabel;html=1;align=center;verticalAlign=middle;resizable=0;points=[];" vertex="1" connectable="0" parent="rt5PsmfTOVGFWf7QO8p9-32">
          <mxGeometry x="-0.0333" y="1" relative="1" as="geometry">
            <mxPoint as="offset" />
          </mxGeometry>
        </mxCell>
        <mxCell id="rt5PsmfTOVGFWf7QO8p9-34" value="응답값으로WantedUserProfile&lt;br&gt;캐시 업데이트" style="rounded=1;whiteSpace=wrap;html=1;arcSize=40;fontColor=#000000;fillColor=#ffffc0;strokeColor=#ff0000;" vertex="1" parent="u_kTxpH61WWehxEOvNpR-1">
          <mxGeometry x="440" y="1190" width="120" height="40" as="geometry" />
        </mxCell>
        <mxCell id="rt5PsmfTOVGFWf7QO8p9-35" value="" style="edgeStyle=orthogonalEdgeStyle;html=1;verticalAlign=bottom;endArrow=open;endSize=8;strokeColor=#ff0000;" edge="1" source="rt5PsmfTOVGFWf7QO8p9-34" parent="u_kTxpH61WWehxEOvNpR-1">
          <mxGeometry relative="1" as="geometry">
            <mxPoint x="500" y="1290" as="targetPoint" />
          </mxGeometry>
        </mxCell>
        <mxCell id="rt5PsmfTOVGFWf7QO8p9-36" value="id, fb_id, userHash, name, mobile, email" style="shape=callout;whiteSpace=wrap;html=1;perimeter=calloutPerimeter;position2=0.75;base=20;" vertex="1" parent="u_kTxpH61WWehxEOvNpR-1">
          <mxGeometry x="260" y="1140" width="120" height="80" as="geometry" />
        </mxCell>
        <mxCell id="rt5PsmfTOVGFWf7QO8p9-37" value="/v3/profile/{userHash} API 호출" style="rounded=1;whiteSpace=wrap;html=1;arcSize=40;fontColor=#000000;fillColor=#ffffc0;strokeColor=#ff0000;" vertex="1" parent="u_kTxpH61WWehxEOvNpR-1">
          <mxGeometry x="440" y="1290" width="120" height="40" as="geometry" />
        </mxCell>
        <mxCell id="rt5PsmfTOVGFWf7QO8p9-38" value="" style="edgeStyle=orthogonalEdgeStyle;html=1;verticalAlign=bottom;endArrow=open;endSize=8;strokeColor=#ff0000;" edge="1" source="rt5PsmfTOVGFWf7QO8p9-37" parent="u_kTxpH61WWehxEOvNpR-1">
          <mxGeometry relative="1" as="geometry">
            <mxPoint x="500" y="1390" as="targetPoint" />
          </mxGeometry>
        </mxCell>
        <mxCell id="rt5PsmfTOVGFWf7QO8p9-39" value="Condition" style="rhombus;whiteSpace=wrap;html=1;fillColor=#ffffc0;strokeColor=#ff0000;" vertex="1" parent="u_kTxpH61WWehxEOvNpR-1">
          <mxGeometry x="460" y="1390" width="80" height="40" as="geometry" />
        </mxCell>
        <mxCell id="rt5PsmfTOVGFWf7QO8p9-40" value="error" style="edgeStyle=orthogonalEdgeStyle;html=1;align=left;verticalAlign=bottom;endArrow=open;endSize=8;strokeColor=#ff0000;" edge="1" source="rt5PsmfTOVGFWf7QO8p9-39" parent="u_kTxpH61WWehxEOvNpR-1">
          <mxGeometry x="-1" relative="1" as="geometry">
            <mxPoint x="640" y="1410" as="targetPoint" />
          </mxGeometry>
        </mxCell>
        <mxCell id="rt5PsmfTOVGFWf7QO8p9-41" value="성공" style="edgeStyle=orthogonalEdgeStyle;html=1;align=left;verticalAlign=top;endArrow=open;endSize=8;strokeColor=#ff0000;" edge="1" source="rt5PsmfTOVGFWf7QO8p9-39" parent="u_kTxpH61WWehxEOvNpR-1">
          <mxGeometry x="-0.3333" y="20" relative="1" as="geometry">
            <mxPoint x="500" y="1490" as="targetPoint" />
            <mxPoint as="offset" />
          </mxGeometry>
        </mxCell>
        <mxCell id="rt5PsmfTOVGFWf7QO8p9-42" value="응답값으로 ProfileDetails&lt;br&gt;&amp;nbsp;캐시 업데이트" style="rounded=1;whiteSpace=wrap;html=1;arcSize=40;fontColor=#000000;fillColor=#ffffc0;strokeColor=#ff0000;" vertex="1" parent="u_kTxpH61WWehxEOvNpR-1">
          <mxGeometry x="440" y="1490" width="120" height="40" as="geometry" />
        </mxCell>
        <mxCell id="rt5PsmfTOVGFWf7QO8p9-43" value="" style="edgeStyle=orthogonalEdgeStyle;html=1;verticalAlign=bottom;endArrow=open;endSize=8;strokeColor=#ff0000;" edge="1" source="rt5PsmfTOVGFWf7QO8p9-42" parent="u_kTxpH61WWehxEOvNpR-1">
          <mxGeometry relative="1" as="geometry">
            <mxPoint x="500" y="1590" as="targetPoint" />
          </mxGeometry>
        </mxCell>
        <mxCell id="rt5PsmfTOVGFWf7QO8p9-44" value="jwt token을 키체인에 저장&lt;br&gt;(AuthenticationHelper &amp;gt; jwtToken)" style="rounded=1;whiteSpace=wrap;html=1;arcSize=40;fontColor=#000000;fillColor=#ffffc0;strokeColor=#ff0000;" vertex="1" parent="u_kTxpH61WWehxEOvNpR-1">
          <mxGeometry x="440" y="1590" width="120" height="40" as="geometry" />
        </mxCell>
        <mxCell id="rt5PsmfTOVGFWf7QO8p9-45" value="" style="edgeStyle=orthogonalEdgeStyle;html=1;verticalAlign=bottom;endArrow=open;endSize=8;strokeColor=#ff0000;" edge="1" source="rt5PsmfTOVGFWf7QO8p9-44" parent="u_kTxpH61WWehxEOvNpR-1" target="rt5PsmfTOVGFWf7QO8p9-51">
          <mxGeometry relative="1" as="geometry">
            <mxPoint x="500" y="1690" as="targetPoint" />
          </mxGeometry>
        </mxCell>
        <mxCell id="rt5PsmfTOVGFWf7QO8p9-46" value="user defaults에 auth=true&lt;br&gt;sigunUp=true&lt;br&gt;id=id 저장" style="rounded=1;whiteSpace=wrap;html=1;arcSize=40;fontColor=#000000;fillColor=#ffffc0;strokeColor=#ff0000;" vertex="1" parent="u_kTxpH61WWehxEOvNpR-1">
          <mxGeometry x="440" y="1790" width="120" height="40" as="geometry" />
        </mxCell>
        <mxCell id="rt5PsmfTOVGFWf7QO8p9-47" value="" style="edgeStyle=orthogonalEdgeStyle;html=1;verticalAlign=bottom;endArrow=open;endSize=8;strokeColor=#ff0000;" edge="1" source="rt5PsmfTOVGFWf7QO8p9-46" parent="u_kTxpH61WWehxEOvNpR-1" target="rt5PsmfTOVGFWf7QO8p9-53">
          <mxGeometry relative="1" as="geometry">
            <mxPoint x="500" y="1890" as="targetPoint" />
          </mxGeometry>
        </mxCell>
        <mxCell id="rt5PsmfTOVGFWf7QO8p9-48" value="로딩뷰 숨김" style="rounded=1;whiteSpace=wrap;html=1;arcSize=40;fontColor=#000000;fillColor=#ffffc0;strokeColor=#ff0000;" vertex="1" parent="u_kTxpH61WWehxEOvNpR-1">
          <mxGeometry x="440" y="1990" width="120" height="40" as="geometry" />
        </mxCell>
        <mxCell id="rt5PsmfTOVGFWf7QO8p9-49" value="" style="edgeStyle=orthogonalEdgeStyle;html=1;verticalAlign=bottom;endArrow=open;endSize=8;strokeColor=#ff0000;" edge="1" source="rt5PsmfTOVGFWf7QO8p9-48" parent="u_kTxpH61WWehxEOvNpR-1">
          <mxGeometry relative="1" as="geometry">
            <mxPoint x="500" y="2090" as="targetPoint" />
          </mxGeometry>
        </mxCell>
        <mxCell id="rt5PsmfTOVGFWf7QO8p9-51" value="&lt;span&gt;jwt token을 키체인에 저장&lt;/span&gt;" style="rounded=1;whiteSpace=wrap;html=1;arcSize=40;fontColor=#000000;fillColor=#ffffc0;strokeColor=#ff0000;" vertex="1" parent="u_kTxpH61WWehxEOvNpR-1">
          <mxGeometry x="440" y="1690" width="120" height="40" as="geometry" />
        </mxCell>
        <mxCell id="rt5PsmfTOVGFWf7QO8p9-52" value="" style="edgeStyle=orthogonalEdgeStyle;html=1;verticalAlign=bottom;endArrow=open;endSize=8;strokeColor=#ff0000;entryX=0.5;entryY=0;entryDx=0;entryDy=0;" edge="1" source="rt5PsmfTOVGFWf7QO8p9-51" parent="u_kTxpH61WWehxEOvNpR-1" target="rt5PsmfTOVGFWf7QO8p9-46">
          <mxGeometry relative="1" as="geometry">
            <mxPoint x="560" y="1930" as="targetPoint" />
          </mxGeometry>
        </mxCell>
        <mxCell id="rt5PsmfTOVGFWf7QO8p9-53" value="AuthenticatonHelper가&lt;br&gt;delegate의 receivedSuccess() 호출" style="rounded=1;whiteSpace=wrap;html=1;arcSize=40;fontColor=#000000;fillColor=#ffffc0;strokeColor=#ff0000;" vertex="1" parent="u_kTxpH61WWehxEOvNpR-1">
          <mxGeometry x="440" y="1890" width="120" height="40" as="geometry" />
        </mxCell>
        <mxCell id="rt5PsmfTOVGFWf7QO8p9-54" value="" style="edgeStyle=orthogonalEdgeStyle;html=1;verticalAlign=bottom;endArrow=open;endSize=8;strokeColor=#ff0000;" edge="1" source="rt5PsmfTOVGFWf7QO8p9-53" parent="u_kTxpH61WWehxEOvNpR-1">
          <mxGeometry relative="1" as="geometry">
            <mxPoint x="502" y="1986" as="targetPoint" />
          </mxGeometry>
        </mxCell>
        <mxCell id="rt5PsmfTOVGFWf7QO8p9-56" value="키체인에서 AuthenticationProvider_faceebook에 저장된 값 제거" style="rounded=1;whiteSpace=wrap;html=1;arcSize=40;fontColor=#000000;fillColor=#ffffc0;strokeColor=#ff0000;" vertex="1" parent="u_kTxpH61WWehxEOvNpR-1">
          <mxGeometry x="440" y="2090" width="120" height="40" as="geometry" />
        </mxCell>
        <mxCell id="rt5PsmfTOVGFWf7QO8p9-57" value="" style="edgeStyle=orthogonalEdgeStyle;html=1;verticalAlign=bottom;endArrow=open;endSize=8;strokeColor=#ff0000;" edge="1" source="rt5PsmfTOVGFWf7QO8p9-56" parent="u_kTxpH61WWehxEOvNpR-1">
          <mxGeometry relative="1" as="geometry">
            <mxPoint x="500" y="2190" as="targetPoint" />
          </mxGeometry>
        </mxCell>
        <mxCell id="rt5PsmfTOVGFWf7QO8p9-58" value="user defaults 에&lt;br&gt;signUp= true 저장" style="rounded=1;whiteSpace=wrap;html=1;arcSize=40;fontColor=#000000;fillColor=#ffffc0;strokeColor=#ff0000;" vertex="1" parent="u_kTxpH61WWehxEOvNpR-1">
          <mxGeometry x="440" y="2190" width="120" height="40" as="geometry" />
        </mxCell>
        <mxCell id="rt5PsmfTOVGFWf7QO8p9-59" value="" style="edgeStyle=orthogonalEdgeStyle;html=1;verticalAlign=bottom;endArrow=open;endSize=8;strokeColor=#ff0000;" edge="1" source="rt5PsmfTOVGFWf7QO8p9-58" parent="u_kTxpH61WWehxEOvNpR-1">
          <mxGeometry relative="1" as="geometry">
            <mxPoint x="500" y="2290" as="targetPoint" />
          </mxGeometry>
        </mxCell>
        <mxCell id="rt5PsmfTOVGFWf7QO8p9-60" value="Braze에 &amp;nbsp;signup_yn = true 설정" style="rounded=1;whiteSpace=wrap;html=1;arcSize=40;fontColor=#000000;fillColor=#ffffc0;strokeColor=#ff0000;" vertex="1" parent="u_kTxpH61WWehxEOvNpR-1">
          <mxGeometry x="440" y="2290" width="120" height="40" as="geometry" />
        </mxCell>
        <mxCell id="rt5PsmfTOVGFWf7QO8p9-61" value="" style="edgeStyle=orthogonalEdgeStyle;html=1;verticalAlign=bottom;endArrow=open;endSize=8;strokeColor=#ff0000;" edge="1" source="rt5PsmfTOVGFWf7QO8p9-60" parent="u_kTxpH61WWehxEOvNpR-1">
          <mxGeometry relative="1" as="geometry">
            <mxPoint x="500" y="2390" as="targetPoint" />
          </mxGeometry>
        </mxCell>
        <mxCell id="rt5PsmfTOVGFWf7QO8p9-62" value="NotificationSettingManager의 &amp;nbsp;loadSetting() 호출&lt;br&gt;서버로 부터 알림설정 정보를 가져옴" style="rounded=1;whiteSpace=wrap;html=1;arcSize=40;fontColor=#000000;fillColor=#ffffc0;strokeColor=#ff0000;" vertex="1" parent="u_kTxpH61WWehxEOvNpR-1">
          <mxGeometry x="440" y="2390" width="120" height="40" as="geometry" />
        </mxCell>
        <mxCell id="rt5PsmfTOVGFWf7QO8p9-63" value="" style="edgeStyle=orthogonalEdgeStyle;html=1;verticalAlign=bottom;endArrow=open;endSize=8;strokeColor=#ff0000;" edge="1" source="rt5PsmfTOVGFWf7QO8p9-62" parent="u_kTxpH61WWehxEOvNpR-1">
          <mxGeometry relative="1" as="geometry">
            <mxPoint x="500" y="2490" as="targetPoint" />
          </mxGeometry>
        </mxCell>
        <mxCell id="rt5PsmfTOVGFWf7QO8p9-64" value="앰플리튜드의 &amp;nbsp;user 속성에 정보 설정" style="rounded=1;whiteSpace=wrap;html=1;arcSize=40;fontColor=#000000;fillColor=#ffffc0;strokeColor=#ff0000;" vertex="1" parent="u_kTxpH61WWehxEOvNpR-1">
          <mxGeometry x="440" y="2490" width="120" height="40" as="geometry" />
        </mxCell>
        <mxCell id="rt5PsmfTOVGFWf7QO8p9-65" value="" style="edgeStyle=orthogonalEdgeStyle;html=1;verticalAlign=bottom;endArrow=open;endSize=8;strokeColor=#ff0000;" edge="1" source="rt5PsmfTOVGFWf7QO8p9-64" parent="u_kTxpH61WWehxEOvNpR-1">
          <mxGeometry relative="1" as="geometry">
            <mxPoint x="500" y="2590" as="targetPoint" />
          </mxGeometry>
        </mxCell>
        <mxCell id="rt5PsmfTOVGFWf7QO8p9-66" value="WalkThroughViewModel이 delegate에게 로그인 완료를 알림" style="rounded=1;whiteSpace=wrap;html=1;arcSize=40;fontColor=#000000;fillColor=#ffffc0;strokeColor=#ff0000;" vertex="1" parent="u_kTxpH61WWehxEOvNpR-1">
          <mxGeometry x="440" y="2580" width="120" height="40" as="geometry" />
        </mxCell>
        <mxCell id="rt5PsmfTOVGFWf7QO8p9-67" value="" style="edgeStyle=orthogonalEdgeStyle;html=1;verticalAlign=bottom;endArrow=open;endSize=8;strokeColor=#ff0000;" edge="1" source="rt5PsmfTOVGFWf7QO8p9-66" parent="u_kTxpH61WWehxEOvNpR-1">
          <mxGeometry relative="1" as="geometry">
            <mxPoint x="500" y="2680" as="targetPoint" />
          </mxGeometry>
        </mxCell>
        <mxCell id="rt5PsmfTOVGFWf7QO8p9-68" value="delegate: WalkthroughViewController" style="shape=callout;whiteSpace=wrap;html=1;perimeter=calloutPerimeter;position2=0.79;" vertex="1" parent="u_kTxpH61WWehxEOvNpR-1">
          <mxGeometry x="300" y="2530" width="120" height="80" as="geometry" />
        </mxCell>
      </root>
    </mxGraphModel>
  </diagram>
</mxfile>
